<?xml version="1.0" encoding="utf-8"?>
<!-- Generator: Adobe Illustrator 19.2.0, SVG Export Plug-In . SVG Version: 6.00 Build 0)  -->
<svg version="1.1" id="Layer_1" xmlns="http://www.w3.org/2000/svg" xmlns:xlink="http://www.w3.org/1999/xlink" x="0px" y="0px"
	 viewBox="0 0 100 100" style="enable-background:new 0 0 100 100;" xml:space="preserve">
<style type="text/css">
	.st0{fill:#231F20;}
</style>
<path class="st0" d="M75.7,35.5c2.2,43.5,4.1,33.6,15.5,34.3S93,82,93,82c-9.9,9.7-26.9,1.9-31.4-3.7s-3.7-14.2-5.6-11
	s-14.6,20-35.6,15.1S4,51.5,20.4,27.3s50.4-12.9,50.4-12.9C76.6,17.2,75.7,35.5,75.7,35.5z M38.7,61.1c6-5.2,12.1-24.3,14.2-30.8
	S48,20.4,34.8,36s-8,31-8,31C30.3,70.6,32.7,66.3,38.7,61.1z"/>
</svg>
